<?xml version="1.0"?>
<svg xmlns="http://www.w3.org/2000/svg" xmlns:xlink="http://www.w3.org/1999/xlink" viewBox="0 0 512 512" width="512" height="512"><defs><linearGradient id="linear-gradient" x1="93.999" y1="549.999" x2="467.658" y2="176.34" gradientUnits="userSpaceOnUse"><stop offset="0" stop-color="#41dfd0"/><stop offset="1" stop-color="#ee83ef"/></linearGradient></defs><g id="gradient"><path d="M432,304H416V288h16Zm32-16H448v16h16Zm-32,32H416v16h16Zm32,0H448v16h16Zm-32,32H416v16h16Zm32,0H448v16h16Zm-32,32H416v16h16Zm32,0H448v16h16Zm-32,32H416v16h16Zm32,0H448v16h16ZM256,248h16V232H256Zm32,0h16V232H288Zm-32,32h16V264H256Zm32,0h16V264H288Zm-32,32h16V296H256Zm32,0h16V296H288Zm-32,32h16V328H256Zm32,0h16V328H288Zm-32,32h16V360H256Zm32,0h16V360H288Zm32-128h16V232H320Zm0,32h16V264H320Zm0,32h16V296H320Zm0,32h16V328H320Zm0,32h16V360H320Zm32-128h16V232H352Zm0,32h16V264H352Zm0,32h16V296H352Zm0,32h16V328H352Zm0,32h16V360H352ZM224,248h16V232H224Zm48-80H256v16h16Zm32,0H288v16h16Zm32,0H320v16h16Zm32,0H352v16h16ZM240,184V168H224v16Zm-16,96h16V264H224Zm0,32h16V296H224Zm0,32h16V328H224Zm-64-40v16h16V304Zm0,48h16V336H160Zm0,32h16V368H160Zm0,32h16V400H160Zm64-40h16V360H224ZM16,432V392a31.936,31.936,0,0,1,62.9-7.9c.374-.013.727-.1,1.105-.1a32.036,32.036,0,0,1,32,32v16a31.966,31.966,0,0,1-24,30.864V496H72V462.854a31.653,31.653,0,0,1-8.076-3.263A31.663,31.663,0,0,1,56,462.864V496H40V462.864A31.966,31.966,0,0,1,16,432Zm64-31.855V432a31.6,31.6,0,0,1-4.12,15.392A15.854,15.854,0,0,0,80,448a16.019,16.019,0,0,0,16-16V416A15.907,15.907,0,0,0,91.305,404.7,16.436,16.436,0,0,0,80,400.145ZM32,432a16,16,0,0,0,32,0V392a16,16,0,0,0-32,0ZM495.97,263.853c0,.052.03.095.03.147V488a8,8,0,0,1-8,8H136a8,8,0,0,1-8-8V280c0-.177.089-.325.1-.5a7.884,7.884,0,0,1,.436-2.16,7.658,7.658,0,0,1,.35-.84,7.888,7.888,0,0,1,1.129-1.674,7.7,7.7,0,0,1,.513-.61c.077-.073.121-.17.2-.24L192,220.366V112a8,8,0,0,1,8-8h32V88a8,8,0,0,1-5.27-14.023l64-56a8,8,0,0,1,10.54,0l64,56A8,8,0,0,1,360,88v16h32a8,8,0,0,1,8,8V237.578l17.344-26.016A8,8,0,0,1,424,208h32a8,8,0,0,1,6.656,3.562l32,48a7.619,7.619,0,0,1,.455.936c.107.217.224.415.312.643A7.936,7.936,0,0,1,495.97,263.853ZM480,272H400V448h80ZM296,432h25.9L296,410.414,270.1,432Zm-152,0h48V288H144Zm240-40V216H208V392Zm0-240H208v48H384ZM208,448h32v-8c0-.162.083-.3.092-.458a7.944,7.944,0,0,1,.451-2.234,7.628,7.628,0,0,1,.378-.857,7.892,7.892,0,0,1,1.079-1.6,7.789,7.789,0,0,1,.6-.681c.105-.1.168-.225.279-.317L273.9,408H208v40Zm144-8v8h32V408H318.1l31.022,25.852c.111.092.174.219.279.317a7.789,7.789,0,0,1,.6.681,7.892,7.892,0,0,1,1.079,1.6,7.628,7.628,0,0,1,.378.857,7.944,7.944,0,0,1,.451,2.234C351.917,439.7,352,439.838,352,440Zm54.949-184h66.1l-21.332-32H428.281ZM253.293,72h85.414L296,34.633ZM248,104h96V88H248Zm-40,32H384V120H208ZM157.293,272H192V241.633ZM144,480h48V448H144Zm64,0h32V464H208Zm48,0h32V448H256v32Zm48,0h32V448H304Zm48,0h32V464H352Zm128-16H400v16h80Z" style="fill:url(#linear-gradient)"/></g></svg>
