<?xml version="1.0"?>
<svg xmlns="http://www.w3.org/2000/svg" xmlns:xlink="http://www.w3.org/1999/xlink" viewBox="0 0 512 512" width="512" height="512"><defs><linearGradient id="linear-gradient" x1="95.372" y1="554.689" x2="503.655" y2="146.405" gradientUnits="userSpaceOnUse"><stop offset="0" stop-color="#41dfd0"/><stop offset="1" stop-color="#ee83ef"/></linearGradient></defs><g id="gradient"><path d="M495.789,438.164l-32-136A8.005,8.005,0,0,0,456,296V280a15.972,15.972,0,0,0-11.364-15.234l21.673-69.412A39.87,39.87,0,0,0,448,120c-.693,0-1.34.169-2.025.2l-55.7-62.256a31.286,31.286,0,0,0-7.653-32.574c-12.078-12.094-33.172-12.094-45.25,0L321.738,41.012,272.617,57.383a7.993,7.993,0,0,0-3.125,13.242l67.883,67.883a8.014,8.014,0,0,0,5.656,2.344,8.2,8.2,0,0,0,1.836-.211,8.007,8.007,0,0,0,5.75-5.258l12.094-36.289,46.394,51.92A39.273,39.273,0,0,0,419.766,188.3L396.122,264H384a16.021,16.021,0,0,0-16,16v16H331.5L287.57,212.254a29.3,29.3,0,0,0-7.57-25.2V168a24.113,24.113,0,0,0-24-24,24.027,24.027,0,0,0-24,24v19.056a29.3,29.3,0,0,0-7.57,25.2L180.5,296H56a8.005,8.005,0,0,0-7.789,6.164l-32,136a7.563,7.563,0,0,0,0,.811A7.5,7.5,0,0,0,16,440v32a8,8,0,0,0,8,8H488a8,8,0,0,0,8-8V440a4.79,4.79,0,0,1-.211-1.836ZM472,160a24.033,24.033,0,0,1-14.7,22.12c-.13.041-.257.072-.384.12A23.975,23.975,0,1,1,472,160ZM348.688,36.688a16.375,16.375,0,0,1,22.624,0A15.888,15.888,0,0,1,376,48c0,.293-.069.573-.084.863a7.674,7.674,0,0,0-3.416,1.879l-16.188,16.2L337.375,48Zm-9.157,81.351-49.57-49.57L323.9,57.156l24.007,24.007a7.82,7.82,0,0,0,1.7,3.259l.827.925Zm30.51-34.83,11.281-11.281,47.554,53.161a40.011,40.011,0,0,0-12.214,10.357ZM433.725,197.25A39.622,39.622,0,0,0,448,200c.035,0,.067-.01.1-.01L428.121,264H412.876ZM384,280h56v16H384Zm-61,34.258-9.234,16.922L265.2,238.49a31.92,31.92,0,0,0,13.729-8.25ZM240.36,211.33l-.018-.058a16,16,0,1,1,31.316,0l-.018.058a15.988,15.988,0,0,1-31.28,0ZM277.268,296H234.732L256,255.411ZM256,160a7.818,7.818,0,0,1,5.7,2.453A7.674,7.674,0,0,1,264,168v9.136a28.737,28.737,0,0,0-16,0V168A8.005,8.005,0,0,1,256,160Zm-9.2,78.49-48.562,92.69L189,314.258l44.069-84.018A31.929,31.929,0,0,0,246.8,238.49ZM62.336,312H172.312a7.957,7.957,0,0,0,.586,6.148l11.79,21.61-12.86,24.531A8,8,0,1,0,186,371.711l11.152-21.273.059.031a8.009,8.009,0,0,0,10.758-3.391L226.349,312h59.3l18.38,35.078a8.009,8.009,0,0,0,10.758,3.391l.059-.031L326,371.711a8,8,0,1,0,14.172-7.422l-12.86-24.531,11.79-21.61a7.957,7.957,0,0,0,.586-6.148H449.664L477.9,432H34.1ZM480,464H32V448H480ZM319.617,380.883a7.993,7.993,0,0,1-5.179,10.055,192.955,192.955,0,0,1-116.876,0,8,8,0,0,1,4.876-15.235,177.75,177.75,0,0,0,107.124,0A7.944,7.944,0,0,1,319.617,380.883ZM214.039,146.922a55.381,55.381,0,0,0-7.656,11.086l-14.172-7.438A71.936,71.936,0,0,1,202.07,136.3Zm95.711-10.828a72.469,72.469,0,0,1,9.906,14.226l-14.14,7.5a55.957,55.957,0,0,0-7.7-11.07ZM264.531,112.5l-1.906,15.891a56.024,56.024,0,0,0-13.492.031L247.2,112.531A73.97,73.97,0,0,1,264.531,112.5ZM192.469,217.922A72.222,72.222,0,0,1,186.2,201.75l15.5-3.953a55.486,55.486,0,0,0,4.883,12.562Zm22.562-93.141a72.149,72.149,0,0,1,15.313-8.086l5.718,14.953a55.579,55.579,0,0,0-11.921,6.29Zm95.414,72.407,15.547,3.75a71.981,71.981,0,0,1-6.078,16.25l-14.2-7.376A55.912,55.912,0,0,0,310.445,197.188ZM287.688,137.82a56.256,56.256,0,0,0-11.954-6.25l5.641-14.968a72.039,72.039,0,0,1,15.375,8.031ZM201.617,170.6A55.954,55.954,0,0,0,200,184l-16.008.484.016-.882a71.179,71.179,0,0,1,2.062-16.813ZM328,183.719l-16,.078a56.575,56.575,0,0,0-1.664-13.406l15.531-3.86A72.428,72.428,0,0,1,328,183.719ZM192,408a8,8,0,0,1-8,8H96a8,8,0,0,1-7.812-9.734l16-72A8.005,8.005,0,0,1,112,328h48a8,8,0,0,1,0,16H118.414l-12.437,56H184A8,8,0,0,1,192,408Zm215.812-73.734,16,72A8,8,0,0,1,416,416H328a8,8,0,0,1,0-16h78.023l-12.437-56H352a8,8,0,0,1,0-16h48A8.005,8.005,0,0,1,407.812,334.266ZM448,152a8,8,0,1,1-8,8A8,8,0,0,1,448,152ZM248,207.859a8,8,0,1,1,8,8A8,8,0,0,1,248,207.859Z" style="fill:url(#linear-gradient)"/></g></svg>
