<svg height="512" viewBox="0 0 512 512" width="512" xmlns="http://www.w3.org/2000/svg" xmlns:xlink="http://www.w3.org/1999/xlink"><linearGradient id="linear-gradient" gradientUnits="userSpaceOnUse" x1="118.69" x2="418.005" y1="378.004" y2="78.689"><stop offset="0" stop-color="#41dfd0"/><stop offset="1" stop-color="#ee83ef"/></linearGradient><path d="m312 288h-16v-16h16zm-128-192v8h48v-48a23.96 23.96 0 0 1 16-22.526v-9.474a8 8 0 0 1 16 0v9.474a23.96 23.96 0 0 1 16 22.526v48h48v-8a24 24 0 0 1 48 0v8h8a24.027 24.027 0 0 1 24 24 24.113 24.113 0 0 1 -24 24h-10.6a97.86 97.86 0 0 0 110.166 1.344 8 8 0 0 1 8.876 13.312 113.842 113.842 0 0 1 -143.282-14.187l-.468-.469h-17.38l-48 48h60.688a8 8 0 0 1 8 8v40a8 8 0 0 1 -8 8v56a8 8 0 0 1 -8 8h-56v168a8 8 0 0 1 -8 8h-32a8 8 0 0 1 -8-8v-284.688l-51.312-51.312h-52.688a24.027 24.027 0 0 1 -24-24 24.113 24.113 0 0 1 24-24h8v-8a24 24 0 0 1 48 0zm-32 8h16v-8a8 8 0 0 0 -16 0zm80 76.688v-28.688h-28.688zm96 75.312h-48v48h48zm8-40h-56v24h56zm-27.312-64h-28.688v28.688zm35.312-48h16v-8a8 8 0 0 0 -16 0zm-64 16v16h104a7.672 7.672 0 0 0 5.555-2.305 7.8 7.8 0 0 0 2.445-5.695 8.011 8.011 0 0 0 -8-8zm-32 360h16v-424a8 8 0 0 0 -16 0zm-16-360h-104a7.672 7.672 0 0 0 -5.555 2.305 7.8 7.8 0 0 0 -2.445 5.695 8.011 8.011 0 0 0 8 8h104z" fill="url(#linear-gradient)"/></svg>