<?xml version="1.0"?>
<svg xmlns="http://www.w3.org/2000/svg" xmlns:xlink="http://www.w3.org/1999/xlink" viewBox="0 0 512 512" width="512" height="512"><defs><linearGradient id="linear-gradient" x1="74.343" y1="509.657" x2="480.963" y2="103.037" gradientUnits="userSpaceOnUse"><stop offset="0" stop-color="#41dfd0"/><stop offset="1" stop-color="#ee83ef"/></linearGradient></defs><g id="gradient"><path d="M488,296H472V104a24.027,24.027,0,0,0-24-24H390.776l-6.885-41.312A8,8,0,0,0,376,32H344a8,8,0,0,0-7.891,6.688L329.224,80H288a24.027,24.027,0,0,0-24,24v9.454a40.054,40.054,0,0,0-29.094,30.484L200,313.476V64a8,8,0,0,0-8-8H160a8,8,0,0,0-8,8V256H128a8,8,0,0,0-8,8v88H32a8,8,0,0,0-8,8v80a8,8,0,0,0,0,16H128a8,8,0,0,0,8-8V400h28.324a47.925,47.925,0,1,0,71.352,64H412.324a47.774,47.774,0,0,0,71.352,0H488a8,8,0,0,0,8-8V304A8,8,0,0,0,488,296Zm-8,16v84.324a48.175,48.175,0,0,0-8-5.83V312ZM324.858,384l109.908-40.492A8,8,0,0,0,440,336V312h16v72ZM424,304H312v-8a8.008,8.008,0,0,1,8-8h64a8,8,0,0,0,8-8V216a8.008,8.008,0,0,1,8-8h24ZM304,320H424v10.422L278.574,384h-3.82l19.2-64Zm136-24V128h16V296ZM350.777,48h18.446l5.332,32h-29.11ZM280,104a8.008,8.008,0,0,1,8-8H448a8.008,8.008,0,0,1,8,8v8H280ZM216.64,312H240a7.993,7.993,0,0,0,7.309-4.75l30.573-68.791,14,8.4,8.234-13.718-40-24-8.234,13.718,12.179,7.308L234.8,296H219.934l30.644-148.844A24.079,24.079,0,0,1,274.082,128H424v64H400a24.027,24.027,0,0,0-24,24v56H320a24.027,24.027,0,0,0-24,24v8h-8a8.007,8.007,0,0,0-7.664,5.7L258.047,384H201.816ZM168,72h16V384H168V72ZM88,368v24H72V368Zm32,72H40V368H56v32a8,8,0,0,0,8,8H96a8,8,0,0,0,8-8V368h16v72Zm16-80V272h16V384H136Zm64,104a32,32,0,1,1,32-32A32.034,32.034,0,0,1,200,464Zm45.2-16a47.522,47.522,0,0,0-9.524-48H412.324a47.522,47.522,0,0,0-9.524,48ZM448,464a32,32,0,1,1,32-32A32.034,32.034,0,0,1,448,464Z" style="fill:url(#linear-gradient)"/></g></svg>
